<?xml version="1.0" standalone="no"?>
<!DOCTYPE svg PUBLIC "-//W3C//DTD SVG 20010904//EN"
 "http://www.w3.org/TR/2001/REC-SVG-20010904/DTD/svg10.dtd">
<svg version="1.0" xmlns="http://www.w3.org/2000/svg"
 width="899.000000pt" height="1599.000000pt" viewBox="0 0 899.000000 1599.000000"
 preserveAspectRatio="xMidYMid meet">

<g transform="translate(0.000000,1599.000000) scale(0.100000,-0.100000)"
fill="#000000" stroke="none">
<path d="M2477 13439 c3 -24 7 -46 9 -48 9 -10 3 65 -5 78 -6 10 -8 -1 -4 -30z"/>
<path d="M2501 13334 c0 -11 3 -14 6 -6 3 7 2 16 -1 19 -3 4 -6 -2 -5 -13z"/>
<path d="M2520 13234 c0 -33 30 -175 40 -192 8 -14 9 -12 5 8 -2 14 -12 63
-21 110 -17 86 -24 109 -24 74z"/>
<path d="M2565 12995 c3 -16 8 -49 12 -73 3 -23 10 -45 15 -48 13 -8 -1 83
-18 121 l-14 30 5 -30z"/>
<path d="M2619 12721 c15 -72 30 -133 33 -136 7 -7 2 20 -23 150 -11 55 -24
104 -28 108 -5 5 4 -50 18 -122z"/>
<path d="M2722 12250 c0 -14 2 -19 5 -12 2 6 2 18 0 25 -3 6 -5 1 -5 -13z"/>
<path d="M2731 12204 c0 -11 3 -14 6 -6 3 7 2 16 -1 19 -3 4 -6 -2 -5 -13z"/>
<path d="M2742 12150 c0 -14 2 -19 5 -12 2 6 2 18 0 25 -3 6 -5 1 -5 -13z"/>
<path d="M2752 12095 c0 -16 2 -22 5 -12 2 9 2 23 0 30 -3 6 -5 -1 -5 -18z"/>
<path d="M2766 12020 c4 -25 10 -54 15 -65 5 -12 6 -3 2 25 -3 25 -10 54 -15
65 -5 13 -6 3 -2 -25z"/>
<path d="M3376 11800 c-22 -17 -47 -28 -56 -25 -8 3 -32 -4 -53 -15 -41 -22
-51 -25 -42 -10 3 6 -1 10 -9 10 -8 0 -18 -5 -22 -11 -3 -6 -17 -8 -30 -5 -14
4 -30 2 -37 -4 -65 -53 -84 -65 -108 -66 -15 -1 -41 -9 -59 -17 -17 -9 -37
-14 -45 -11 -20 8 -69 -27 -143 -102 -34 -35 -69 -64 -77 -64 -7 0 -29 -9 -48
-20 -19 -11 -41 -18 -50 -15 -8 4 -18 2 -22 -4 -3 -6 -14 -11 -24 -11 -31 0
-64 -22 -136 -92 -39 -37 -78 -68 -87 -68 -9 0 -41 -23 -71 -50 -31 -29 -57
-45 -59 -39 -5 16 -24 5 -88 -51 -93 -82 -128 -120 -153 -163 -23 -42 -28 -44
-58 -32 -13 5 -17 -3 -22 -40 -2 -26 -11 -54 -19 -62 -11 -11 -13 -25 -7 -56
4 -24 3 -47 -2 -53 -7 -8 13 -32 61 -75 65 -58 70 -65 64 -93 -7 -35 -42 -103
-55 -112 -6 -3 -7 -15 -4 -25 4 -11 2 -25 -4 -32 -18 -22 -39 -100 -46 -167
-9 -101 -35 -291 -40 -300 -2 -4 -9 -72 -15 -151 -6 -79 -15 -171 -20 -204
-14 -85 -22 -355 -11 -355 9 0 30 74 29 100 0 8 5 34 11 58 7 23 9 47 6 52 -3
5 -1 11 5 15 5 3 10 15 10 26 0 10 6 19 13 19 30 1 57 38 57 79 0 30 5 44 20
53 11 7 20 21 20 31 0 12 5 17 13 14 17 -6 40 7 43 25 1 7 3 20 5 28 2 8 -2
14 -9 12 -8 -1 -12 3 -10 10 3 7 19 14 36 16 32 3 33 5 36 62 1 15 10 29 24
36 13 6 29 17 35 23 6 6 18 11 27 11 17 1 58 40 84 82 17 26 17 26 -3 21 -11
-3 -23 -13 -26 -22 -6 -19 -54 -56 -62 -48 -3 3 17 28 45 55 52 53 82 105 82
143 l0 22 -20 -23 c-11 -13 -23 -20 -27 -17 -3 4 7 19 23 35 16 15 34 39 40
53 7 14 26 32 44 41 25 12 28 17 15 22 -14 5 -15 9 -5 21 7 8 18 15 24 15 23
1 58 40 53 59 -6 26 24 56 41 39 13 -13 41 15 73 75 25 48 281 307 303 307 8
0 20 9 26 20 6 11 21 20 34 20 13 0 29 7 36 15 7 8 23 15 35 15 13 0 42 9 66
19 45 21 64 19 55 -5 -3 -9 2 -14 14 -14 11 0 20 4 20 9 0 5 9 11 21 14 13 4
18 10 14 18 -6 9 -1 10 19 5 20 -5 26 -3 26 9 0 9 5 13 10 10 6 -4 8 -11 5
-16 -9 -13 13 -11 61 6 42 14 126 10 284 -14 63 -10 203 -13 167 -4 -30 8 -8
23 34 23 24 0 38 -4 34 -10 -4 -6 20 -10 63 -10 42 0 81 -6 98 -15 16 -8 41
-15 56 -15 15 0 56 -15 90 -34 35 -18 95 -46 133 -61 39 -16 102 -52 141 -81
38 -29 96 -62 127 -74 31 -12 57 -26 57 -31 0 -5 7 -9 15 -9 8 0 15 -4 15 -10
0 -5 7 -10 15 -10 8 0 15 5 15 10 0 6 5 10 10 10 6 0 10 -7 10 -15 0 -9 9 -15
24 -15 13 0 29 -7 36 -15 20 -24 67 -56 89 -60 11 -2 30 -9 42 -16 35 -18 119
-100 119 -115 0 -8 4 -14 10 -14 21 0 129 -251 187 -435 37 -118 42 -127 42
-82 1 22 5 36 11 32 6 -4 9 17 8 54 -1 34 1 64 5 68 4 3 7 -3 7 -15 0 -12 4
-22 8 -22 12 0 52 78 52 102 0 12 4 16 11 12 9 -5 10 9 5 50 -5 37 -4 56 3 56
6 0 11 11 11 25 0 28 9 31 29 13 11 -11 13 -9 8 7 -2 11 -8 28 -12 38 -5 13
-3 16 9 11 8 -3 18 -15 22 -26 3 -11 8 -17 11 -14 3 3 1 18 -5 34 -9 27 -8 29
9 25 16 -5 19 0 19 36 0 31 3 40 13 34 6 -4 4 5 -6 21 -22 33 -15 46 11 23 10
-10 22 -17 25 -17 12 0 7 31 -9 60 -13 21 -14 31 -6 46 6 10 12 14 12 7 0 -7
7 -10 15 -6 9 3 22 -2 30 -13 14 -18 15 -18 21 4 5 19 11 22 31 17 l25 -6 -21
35 c-12 19 -29 48 -36 64 -8 16 -39 54 -68 85 -84 90 -98 112 -88 139 l10 23
2 -25 c1 -18 3 -20 6 -7 3 11 -7 29 -27 47 -17 16 -29 34 -25 39 3 6 -14 23
-37 38 -24 15 -58 40 -77 56 -18 16 -43 32 -56 37 -13 5 -30 23 -38 40 -15 29
-15 31 1 29 9 -1 26 0 37 1 26 2 -50 39 -82 40 -13 0 -23 4 -23 9 0 5 -10 11
-22 15 -18 5 -20 8 -10 15 10 6 4 10 -21 15 -19 4 -47 18 -62 32 -15 14 -40
28 -56 31 -16 3 -29 10 -29 15 0 5 -15 28 -32 52 -25 32 -44 46 -78 56 -28 8
-38 15 -27 17 33 8 17 23 -25 23 -53 0 -78 14 -60 32 18 18 15 28 -9 28 -12 0
-23 8 -26 20 -3 12 -14 20 -26 20 -21 0 -21 0 -1 18 11 11 26 22 34 25 12 4
11 6 -2 6 -10 1 -18 6 -18 11 0 6 -17 10 -37 9 -21 -1 -47 -1 -58 0 -19 2 -19
2 -1 16 25 19 14 32 -34 40 -22 4 -61 18 -86 31 -32 17 -61 24 -100 24 -29 0
-54 5 -54 10 0 6 5 10 10 10 6 0 10 5 10 11 0 14 -177 4 -219 -13 -14 -5 -44
-12 -65 -14 l-39 -4 19 21 c10 12 30 26 44 32 l25 10 -25 7 -25 8 33 13 c18 8
32 21 32 30 0 16 -11 17 -107 14 -60 -2 -116 -6 -125 -10 -12 -5 -18 -2 -18 8
0 22 -53 28 -99 12 -25 -8 -43 -10 -46 -4 -9 14 -76 11 -107 -5 -38 -20 -81
-1 -75 32 5 28 0 28 -47 -8z m-1171 -1730 c-3 -5 -11 -10 -16 -10 -6 0 -7 5
-4 10 3 6 11 10 16 10 6 0 7 -4 4 -10z"/>
<path d="M4018 11743 c7 -3 16 -2 19 1 4 3 -2 6 -13 5 -11 0 -14 -3 -6 -6z"/>
<path d="M3119 9631 c-36 -10 -94 -32 -129 -49 -35 -18 -76 -32 -92 -32 -17 0
-55 -17 -90 -40 -34 -22 -67 -40 -74 -40 -17 0 -23 -21 -12 -42 9 -18 48 -25
48 -9 0 5 24 12 53 16 51 7 104 23 80 24 -26 2 -12 18 25 30 24 8 71 10 137 6
209 -12 269 -25 370 -80 47 -25 85 -43 85 -40 0 3 23 -10 51 -30 54 -37 86
-43 119 -22 17 10 22 9 30 -2 6 -10 23 -14 53 -12 25 1 48 -3 52 -8 8 -14 65
44 66 67 6 73 6 72 -37 97 -24 14 -52 25 -62 25 -11 0 -23 6 -25 13 -4 9 -6 9
-6 -1 -1 -10 -8 -9 -31 3 -16 8 -46 15 -66 15 -22 0 -41 6 -48 16 -8 11 -30
15 -74 16 -49 1 -62 4 -58 14 3 9 -2 14 -15 14 -12 0 -18 4 -13 11 5 9 -6 10
-40 5 -25 -4 -56 -4 -69 0 -21 7 -21 7 -2 14 14 5 2 10 -45 20 -107 20 -113
20 -181 1z m-242 -157 c-3 -3 -12 -4 -19 -1 -8 3 -5 6 6 6 11 1 17 -2 13 -5z
m794 -101 c13 -17 13 -17 -6 -3 -11 8 -22 16 -24 17 -2 2 0 3 6 3 6 0 17 -8
24 -17z m169 -38 c0 -5 -5 -3 -10 5 -5 8 -10 20 -10 25 0 6 5 3 10 -5 5 -8 10
-19 10 -25z"/>
<path d="M2895 9570 c-3 -5 -1 -10 4 -10 6 0 11 5 11 10 0 6 -2 10 -4 10 -3 0
-8 -4 -11 -10z"/>
<path d="M3930 9374 c0 -8 5 -12 10 -9 6 3 10 10 10 16 0 5 -4 9 -10 9 -5 0
-10 -7 -10 -16z"/>
<path d="M3962 9325 c-6 -14 -8 -25 -3 -25 8 0 23 41 17 47 -1 2 -8 -8 -14
-22z"/>
<path d="M4764 9290 c-12 -5 -25 -14 -29 -20 -6 -9 -10 -9 -16 1 -7 11 -9 10
-9 -3 0 -21 -16 -24 -23 -5 -7 21 -47 -23 -47 -52 0 -20 -2 -23 -10 -11 -8 13
-10 12 -10 -2 0 -12 8 -18 21 -18 18 0 19 -3 9 -15 -6 -8 -8 -20 -4 -26 4 -7
3 -9 -3 -6 -6 4 -16 0 -23 -8 -10 -12 -9 -15 7 -15 10 0 23 4 29 9 14 13 68
21 83 11 10 -5 4 -10 -18 -15 -38 -8 -36 -26 6 -40 16 -6 38 -17 48 -25 14
-12 47 -15 147 -15 119 0 131 -2 146 -20 10 -12 25 -24 35 -28 9 -3 17 -11 17
-17 0 -13 28 -43 55 -58 11 -6 14 -12 8 -12 -18 0 -16 -30 2 -30 17 0 44 49
37 68 -2 8 1 24 7 36 10 19 7 33 -23 94 -19 40 -40 79 -46 87 -6 8 -42 24 -78
36 -37 12 -75 29 -86 38 -10 9 -28 17 -40 18 -11 1 -32 4 -46 7 -14 3 -47 8
-73 11 -40 5 -46 9 -36 21 14 16 -2 18 -37 4z"/>
<path d="M3077 9244 c-61 -15 -177 -72 -177 -87 0 -17 67 1 145 39 68 33 86
38 173 42 53 2 124 -1 156 -7 70 -13 170 -57 162 -70 -4 -5 2 -14 11 -20 34
-18 4 -23 -45 -7 -80 27 -229 35 -335 19 -51 -8 -106 -15 -122 -17 -17 -2 -56
-13 -88 -24 -32 -12 -73 -22 -92 -22 -19 0 -35 -4 -35 -10 0 -9 5 -11 37 -14
7 -1 22 -9 33 -19 11 -9 34 -17 51 -17 26 0 29 -3 20 -14 -8 -10 -8 -16 3 -25
9 -8 16 -9 21 -2 7 12 155 9 174 -4 7 -4 25 -1 42 5 21 9 37 10 57 2 15 -6 49
-14 77 -17 41 -6 47 -9 34 -19 -13 -9 -14 -15 -5 -31 6 -11 15 -23 19 -26 17
-12 59 4 69 27 11 24 28 31 42 17 4 -5 28 -16 54 -25 41 -15 44 -18 25 -24
-30 -8 -29 -20 2 -26 14 -3 23 -1 22 6 -1 6 6 10 15 10 10 -1 16 3 15 10 -1 7
14 10 47 7 l49 -3 -7 42 c-6 35 -4 41 9 37 20 -8 65 35 65 61 0 33 -18 72 -34
72 -8 0 -17 9 -21 19 -4 12 -12 17 -24 14 -10 -2 -24 1 -32 9 -8 7 -18 13 -24
14 -5 0 -30 9 -55 20 -61 28 -121 42 -253 59 -134 18 -203 18 -280 -1z m223
-184 c0 -5 -4 -10 -10 -10 -5 0 -10 5 -10 10 0 6 5 10 10 10 6 0 10 -4 10 -10z
m224 -14 c34 -12 55 -30 56 -47 0 -12 -58 -31 -86 -27 -17 2 -30 10 -32 19 -3
14 14 69 20 69 2 0 20 -6 42 -14z m-94 -106 c0 -5 -2 -10 -4 -10 -3 0 -8 5
-11 10 -3 6 -1 10 4 10 6 0 11 -4 11 -10z"/>
<path d="M4560 9228 c0 -6 -7 -20 -17 -30 -9 -10 -13 -18 -10 -18 9 0 47 42
47 52 0 4 -4 8 -10 8 -5 0 -10 -5 -10 -12z"/>
<path d="M1385 9189 c-19 -10 -71 -79 -59 -79 3 0 23 13 43 28 43 33 77 50
111 55 14 2 3 5 -25 5 -27 0 -59 -4 -70 -9z"/>
<path d="M1985 9150 c-3 -5 -1 -10 4 -10 6 0 11 5 11 10 0 6 -2 10 -4 10 -3 0
-8 -4 -11 -10z"/>
<path d="M2850 9134 l-35 -12 32 -1 c17 -1 35 4 38 10 11 16 3 17 -35 3z"/>
<path d="M4435 9014 c-121 -56 -139 -143 -59 -296 8 -14 14 -41 14 -58 0 -24
9 -41 36 -66 19 -19 40 -34 45 -34 6 0 8 -4 4 -10 -3 -5 11 -18 32 -28 79 -40
128 -67 133 -74 3 -4 36 -12 72 -17 36 -5 81 -16 100 -23 54 -24 101 -38 106
-33 3 3 -9 18 -25 34 l-31 29 24 13 c19 10 27 10 36 1 15 -15 38 -15 38 -1 0
19 -57 68 -87 75 -15 3 -48 12 -73 19 -44 13 -44 13 35 8 44 -3 90 -10 103
-14 17 -7 24 -5 29 7 4 11 13 14 30 9 32 -8 53 10 53 44 0 15 4 31 8 37 5 5
15 29 22 52 11 34 11 48 2 63 -7 10 -12 26 -12 34 0 9 -7 18 -15 21 -8 4 -15
12 -15 19 0 7 -28 23 -62 35 -83 28 -300 90 -316 90 -7 0 -22 9 -34 20 -19 17
-19 20 -5 26 44 17 2 36 -83 39 -39 1 -70 -5 -105 -21z m369 -126 c45 -12 98
-32 118 -45 36 -22 76 -79 64 -91 -3 -3 -6 0 -6 6 0 6 -19 17 -42 23 -24 7
-48 16 -54 21 -17 13 -146 55 -192 63 -32 5 -40 11 -39 26 2 26 48 25 151 -3z
m-144 -238 c0 -16 -6 -20 -32 -19 -18 1 -25 3 -15 6 14 4 16 8 6 19 -9 11 -7
14 15 14 19 0 26 -5 26 -20z"/>
<path d="M1281 9014 c0 -11 3 -14 6 -6 3 7 2 16 -1 19 -3 4 -6 -2 -5 -13z"/>
<path d="M3820 8960 c0 -17 -7 -34 -17 -40 -15 -9 -15 -11 -2 -7 9 3 22 0 28
-6 17 -17 24 -1 16 42 -8 47 -25 55 -25 11z"/>
<path d="M3230 8971 c0 -5 13 -11 29 -13 21 -3 28 -1 24 9 -6 14 -53 18 -53 4z"/>
<path d="M1282 8840 c0 -19 2 -27 5 -17 2 9 2 25 0 35 -3 9 -5 1 -5 -18z"/>
<path d="M3490 8840 c0 -16 4 -30 9 -30 5 0 12 -7 15 -16 4 -9 2 -13 -5 -8 -7
4 -57 9 -113 11 -55 2 -127 11 -160 19 -32 8 -60 13 -62 11 -9 -8 87 -48 138
-57 74 -14 179 -12 208 5 14 8 41 14 61 15 38 0 60 23 33 34 -8 3 -14 1 -14
-4 0 -6 -18 -10 -41 -10 l-41 0 23 20 c21 17 22 21 9 30 -8 5 -25 10 -37 10
-19 0 -23 -6 -23 -30z"/>
<path d="M1745 8830 c-25 -26 -31 -42 -35 -96 -6 -69 2 -100 20 -74 5 8 10 21
10 27 0 7 14 38 31 69 20 38 28 65 25 81 -8 30 -16 29 -51 -7z"/>
<path d="M1987 8630 c-11 -74 -14 -212 -5 -265 5 -33 4 -57 -3 -72 -8 -16 -9
-26 -2 -35 10 -12 1 -123 -10 -134 -3 -3 -8 21 -12 53 -4 32 -13 66 -21 77
-13 19 -14 17 -14 -21 0 -50 -20 -143 -34 -162 -6 -8 -24 -20 -41 -27 l-30
-13 47 -1 c39 0 48 -4 53 -21 5 -14 10 -18 14 -10 6 9 12 7 22 -5 8 -10 9 -15
3 -11 -8 5 -12 -4 -12 -28 0 -20 -8 -47 -17 -62 -15 -22 -23 -75 -25 -169 0
-6 -11 -17 -25 -24 -14 -7 -24 -18 -23 -24 1 -6 -2 -36 -6 -67 -6 -50 -9 -56
-27 -52 -13 4 -30 -3 -47 -19 -15 -14 -35 -28 -44 -31 -10 -4 -18 -16 -18 -27
0 -24 -15 -26 -37 -5 -8 8 -20 12 -26 8 -8 -5 -8 -8 1 -11 18 -6 14 -21 -5
-20 -10 1 -28 -2 -40 -6 -16 -5 -25 -1 -37 15 -17 25 -46 19 -46 -10 0 -19
-18 -31 -46 -31 -8 0 -14 5 -14 11 0 16 -26 39 -45 39 -9 0 -29 -8 -43 -19
-15 -10 -43 -21 -62 -24 -78 -12 -122 -25 -139 -41 -18 -16 -20 -16 -29 1 -10
17 -12 17 -59 0 -26 -9 -59 -17 -73 -17 -27 0 -51 -12 -53 -26 -1 -5 -13 -9
-27 -9 -14 0 -42 -10 -62 -23 -29 -18 -41 -21 -57 -13 -35 19 -58 -1 -52 -46
3 -23 -36 -13 -47 12 -11 23 -14 24 -74 18 -35 -3 -67 -9 -73 -13 -9 -7 -43
-13 -135 -27 -19 -3 -55 -14 -80 -26 -25 -12 -65 -23 -90 -24 -105 -8 -127
-11 -170 -24 -25 -7 -55 -19 -67 -27 l-23 -14 0 -3564 0 -3564 3680 0 3680 0
-17 33 c-29 53 -62 96 -163 213 -188 219 -283 338 -337 421 -49 76 -54 89 -48
122 4 20 11 41 15 46 5 6 22 57 39 114 33 111 38 181 21 301 -20 148 -51 340
-65 413 -19 98 -19 167 -1 260 8 40 24 124 36 187 35 189 69 353 80 390 6 19
17 69 26 110 16 79 31 100 73 100 24 0 31 -13 95 -163 37 -89 74 -176 81 -192
8 -17 32 -75 53 -130 58 -147 119 -293 147 -352 14 -28 25 -55 25 -60 0 -5 21
-55 46 -113 25 -58 61 -145 80 -195 19 -49 39 -98 44 -107 5 -9 28 -63 50
-120 23 -57 50 -121 60 -143 10 -22 37 -87 60 -145 23 -58 66 -161 95 -230 29
-69 69 -165 90 -215 20 -49 40 -99 45 -110 5 -11 30 -72 56 -135 25 -63 49
-119 53 -125 4 -5 13 -28 20 -50 29 -88 51 -125 72 -125 23 0 23 2 -2 70 -15
44 -48 120 -135 321 -13 31 -24 60 -24 64 0 4 -9 26 -19 49 -29 63 -59 136
-301 731 -18 44 -45 107 -60 140 -15 33 -42 97 -59 142 -17 45 -46 115 -65
155 -19 40 -37 84 -41 98 -4 14 -11 30 -15 35 -5 6 -26 57 -48 115 -22 58 -70
175 -106 260 -37 85 -74 173 -83 195 -9 22 -25 60 -36 85 -11 25 -26 59 -33
75 -7 17 -27 61 -43 99 -17 37 -31 74 -31 80 0 7 40 22 93 35 50 12 103 27
116 32 14 6 43 14 65 19 23 5 57 13 76 19 87 25 234 64 335 90 61 16 182 48
270 71 88 24 176 46 195 50 45 11 463 122 602 160 59 17 116 30 127 30 16 0
21 6 21 25 0 14 -4 25 -9 25 -5 0 -118 -30 -252 -66 -134 -36 -260 -70 -279
-74 -106 -25 -169 -41 -295 -74 -77 -20 -156 -42 -175 -48 -19 -6 -68 -19
-110 -28 -105 -25 -351 -90 -361 -95 -4 -3 -27 -9 -51 -14 -52 -12 -196 -50
-299 -81 -42 -13 -83 -21 -91 -17 -8 3 -26 37 -38 76 -22 67 -23 74 -11 183 7
62 16 232 21 378 12 379 19 420 64 420 28 0 231 46 262 59 17 8 33 2 73 -24
29 -19 59 -41 67 -50 9 -8 32 -28 52 -43 21 -15 48 -37 62 -50 46 -41 58 -39
119 26 39 42 71 65 106 78 28 10 62 27 77 37 21 16 36 18 70 13 53 -8 145 -30
478 -110 165 -39 392 -82 460 -87 63 -4 60 -11 60 130 0 122 -1 129 -21 134
-12 3 -32 1 -46 -4 -41 -15 -341 -11 -390 6 -23 8 -50 12 -58 8 -9 -3 -29 4
-46 16 -23 17 -29 19 -29 6 0 -19 0 -19 -58 10 -28 14 -63 25 -80 25 -50 0
-47 25 12 98 63 78 136 198 159 262 9 25 27 75 40 112 14 36 28 83 32 105 l8
38 12 -30 c13 -29 13 -29 16 -6 l4 24 11 -24 c6 -13 16 -35 22 -49 33 -74 74
-135 94 -140 14 -4 33 -28 55 -70 19 -36 53 -87 76 -113 23 -27 45 -57 49 -67
4 -10 23 -31 42 -47 20 -15 36 -31 36 -35 0 -4 14 -22 30 -40 l30 -32 0 627
c0 551 -2 627 -15 627 -8 0 -15 5 -15 10 0 6 7 10 15 10 8 0 15 5 15 10 0 6
-7 10 -15 10 -9 0 -15 10 -15 26 0 14 -4 23 -10 19 -6 -3 -10 -1 -10 4 0 6 -4
11 -10 11 -13 0 -50 37 -50 50 0 6 -4 10 -10 10 -5 0 -10 7 -10 15 0 23 -34
84 -47 85 -15 0 -18 70 -4 70 5 0 23 14 41 30 32 30 32 31 13 48 -11 9 -18 23
-15 30 2 7 -2 20 -10 29 -11 13 -11 17 0 21 18 6 -15 42 -39 42 -10 0 -27 12
-38 28 -12 15 -25 32 -30 38 -5 7 -13 40 -17 73 -6 54 -4 64 12 76 16 12 17
17 7 34 -7 12 -13 31 -13 45 0 13 -7 29 -15 36 -8 7 -15 20 -15 29 0 9 -10 32
-22 51 -12 19 -21 43 -19 54 1 10 -2 15 -7 12 -6 -3 -20 6 -32 21 l-22 28 26
22 c26 22 34 43 16 43 -5 0 -19 18 -30 40 -11 22 -25 40 -30 40 -6 0 -10 8
-10 18 0 30 -29 61 -70 73 -22 7 -40 15 -40 19 0 4 -15 10 -32 14 -18 4 -44
17 -58 31 -14 13 -46 42 -72 65 -26 23 -50 52 -54 63 -3 12 -22 41 -40 64 -19
23 -32 47 -31 55 2 7 2 9 -1 5 -5 -10 -102 93 -102 109 0 6 -22 33 -48 60 -60
61 -85 101 -71 109 7 5 6 11 -1 20 -9 11 -5 17 15 28 l27 14 -27 17 c-45 30
-76 60 -91 89 -8 15 -37 49 -64 76 -28 28 -48 55 -45 63 3 7 -1 35 -9 61 -19
62 -12 89 20 81 21 -5 24 -3 24 20 0 15 -7 29 -15 32 -8 4 -15 10 -15 16 0 5
-13 23 -30 41 -16 18 -30 37 -30 44 0 6 -4 13 -9 15 -4 2 -11 12 -15 24 -5 15
0 24 19 34 l26 14 -40 18 c-22 10 -48 29 -59 43 -11 14 -25 25 -31 25 -6 0
-11 4 -11 10 0 5 -16 24 -35 41 -20 19 -35 42 -35 54 0 21 -61 80 -72 70 -3
-3 -13 4 -23 15 -17 18 -17 20 -2 14 22 -8 21 -2 0 24 -10 11 -38 46 -63 77
-25 31 -60 73 -78 93 -18 19 -34 45 -37 56 -11 55 -14 57 -10 8 5 -67 61 -176
130 -251 95 -106 116 -138 101 -153 -7 -8 -17 -25 -21 -37 l-7 -24 28 26 c15
14 32 23 37 20 10 -6 81 -115 82 -125 0 -3 3 -10 7 -14 5 -4 8 -15 8 -25 0 -9
9 -19 21 -22 12 -3 18 -10 14 -17 -8 -13 13 -80 26 -80 5 0 9 -6 9 -14 0 -8
13 -24 29 -35 23 -16 27 -26 23 -48 -2 -16 -10 -35 -16 -43 -7 -8 -17 -27 -23
-41 -9 -22 -20 -28 -55 -31 -77 -8 -80 0 -47 107 30 99 17 104 -16 5 -51 -155
-79 -198 -198 -294 l-48 -39 29 -26 c21 -18 31 -39 36 -71 12 -92 19 -116 42
-146 43 -56 29 -84 -42 -84 -99 0 -210 100 -230 207 -3 18 -10 36 -15 39 -5 3
-9 18 -9 33 0 21 -10 33 -46 56 -51 33 -84 69 -84 95 0 21 -51 89 -67 90 -7 0
-13 9 -13 21 0 25 29 89 40 89 4 0 11 8 14 18 4 9 -13 -5 -38 -32 -24 -27 -47
-62 -50 -79 -12 -60 -7 -118 14 -144 11 -14 17 -30 14 -35 -3 -5 1 -17 9 -26
18 -21 47 -81 47 -97 0 -7 13 -32 30 -56 16 -24 30 -47 30 -51 0 -12 -38 -10
-45 2 -4 6 -10 8 -15 5 -19 -12 -120 147 -120 189 0 14 -4 28 -10 31 -5 3 -10
20 -10 37 0 44 -41 94 -83 102 -28 5 -37 14 -57 56 -13 28 -27 50 -32 50 -5 0
-6 9 -3 20 5 16 2 20 -14 20 -18 0 -21 6 -21 38 0 20 7 50 15 66 22 42 12 42
-26 1 -40 -42 -86 -47 -135 -13 -30 20 -74 90 -74 116 0 14 -32 24 -43 13 -33
-33 49 -155 227 -339 53 -54 94 -109 121 -160 70 -130 145 -255 185 -304 21
-26 48 -77 61 -114 16 -46 35 -76 62 -101 37 -33 41 -34 90 -28 29 4 60 12 70
17 30 15 57 70 57 114 0 22 3 43 6 46 3 4 42 -23 87 -59 131 -105 204 -136
407 -173 278 -51 279 -51 330 -185 33 -87 60 -151 116 -270 8 -17 25 -64 38
-105 13 -41 36 -108 50 -148 15 -41 34 -111 42 -155 9 -45 18 -95 21 -110 l6
-29 -91 7 c-79 7 -91 5 -99 -10 -9 -16 -13 -16 -55 -2 -25 9 -72 29 -105 46
-104 53 -184 60 -418 35 -59 -6 -62 -5 -105 30 -122 97 -186 126 -278 126 -48
0 -98 32 -157 99 -123 143 -178 186 -281 221 -67 24 -183 50 -220 50 -13 0
-57 20 -97 43 -39 24 -99 57 -132 72 -33 16 -96 53 -140 82 -128 84 -174 97
-345 99 -80 0 -165 6 -190 12 -25 6 -92 13 -150 17 -58 3 -159 13 -225 21
-118 14 -332 13 -489 -2 -67 -7 -68 -6 -61 15 6 19 -8 31 -18 14 -2 -5 -2 -3
-1 4 2 6 6 28 10 48 4 24 14 39 28 45 52 20 93 96 87 159 -2 13 2 21 7 17 5
-3 8 -17 7 -31 -2 -14 1 -23 6 -19 5 3 9 18 9 34 0 15 5 30 12 32 10 4 10 13
0 44 -13 44 -5 121 11 105 6 -6 6 -20 -2 -41 -6 -18 -8 -37 -4 -44 9 -14 22
52 22 116 1 37 5 48 20 53 24 7 59 96 71 177 5 32 11 62 15 68 9 14 -5 100
-16 100 -5 0 -9 -8 -9 -17 0 -10 -16 -33 -35 -52 -19 -19 -35 -40 -35 -47 0
-7 -18 -31 -40 -53 -22 -22 -40 -34 -40 -26 0 7 -7 18 -15 25 -21 17 -19 1 5
-38 26 -42 25 -45 -5 -38 -25 6 -26 5 -23 -33 2 -45 -4 -58 -20 -39 -7 9 -6
26 5 57 8 24 12 57 9 72 -3 17 0 32 10 39 19 17 -2 43 -28 36 -13 -3 -22 3
-28 17 -7 17 -9 18 -9 5 -1 -24 -21 -23 -21 0 0 25 -36 59 -42 40 -3 -7 -11 0
-19 17 -13 27 -19 30 -62 30 -40 1 -47 -2 -48 -20 -1 -11 -7 7 -14 40 -7 34
-14 49 -15 35 l-2 -25 -10 28 c-5 15 -13 27 -18 27 -4 0 -13 13 -20 30 -7 16
-15 28 -19 26 -9 -6 -65 83 -57 91 3 4 6 1 6 -5 0 -7 5 -12 10 -12 6 0 1 13
-11 30 -13 16 -21 31 -18 33 2 1 21 10 42 20 43 19 57 45 35 61 -8 6 -13 17
-10 25 2 7 -2 17 -9 22 -9 6 0 8 25 6 37 -2 40 0 50 33 6 19 18 44 28 54 10
11 18 26 18 33 0 14 -26 18 -32 5 -6 -14 -92 -72 -107 -72 -8 0 -33 -6 -56
-14 -22 -8 -52 -17 -66 -20 -14 -3 -38 -17 -54 -32 l-29 -27 38 -19 c30 -15
37 -24 33 -40 -3 -11 -2 -30 2 -42 6 -14 4 -25 -7 -36 -14 -13 -15 -12 -9 3 4
12 1 17 -9 17 -9 0 -18 -9 -21 -20 -3 -12 -13 -20 -22 -19 -32 3 -34 -1 -11
-26 24 -25 20 -30 -22 -26 -12 2 -15 -4 -11 -17 3 -13 -4 -26 -21 -40 -25 -19
-36 -52 -17 -52 5 0 21 6 36 14 26 13 29 13 56 -15 34 -35 41 -36 36 -6 -2 12
-2 18 0 12 2 -5 19 -21 38 -35 19 -14 37 -33 40 -42 4 -10 11 -18 16 -18 5 0
9 -7 9 -15 0 -17 -42 -30 -67 -21 -9 4 -20 1 -24 -6 -6 -9 -32 -12 -86 -10
-109 3 -116 4 -131 19 -16 15 -56 18 -47 3 3 -5 1 -10 -5 -10 -6 0 -10 -8 -8
-17 2 -14 -3 -18 -26 -16 -16 1 -32 6 -35 11 -3 5 -21 12 -39 15 -29 6 -31 5
-18 -8 8 -8 24 -15 35 -15 11 0 23 -5 27 -12 5 -8 0 -9 -17 -4 -13 4 -40 10
-59 13 -19 4 -41 12 -48 20 -7 7 -25 13 -38 13 -34 0 -84 27 -84 45 0 8 -11
17 -25 21 -14 3 -25 9 -25 13 0 4 -55 6 -122 6 -135 -2 -208 8 -224 30 -6 8
-16 15 -23 15 -6 0 -22 7 -35 15 -23 15 -25 14 -45 -11 -26 -33 -27 -44 -3
-44 10 0 29 -11 42 -25 13 -14 28 -25 34 -25 9 0 126 -52 189 -85 16 -8 34
-15 40 -15 6 0 19 -8 30 -17 15 -13 21 -15 24 -5 3 6 18 12 35 12 16 0 36 7
44 15 9 8 21 15 27 15 7 0 6 -4 -3 -10 -13 -9 -13 -10 1 -10 8 0 19 4 25 9 11
11 80 0 174 -28 151 -46 170 -51 185 -51 8 0 24 -6 35 -12 13 -9 23 -9 30 -2
6 6 35 7 77 2 161 -18 179 -30 148 -97 -11 -26 -15 -45 -9 -51 6 -6 39 -7 77
-3 66 6 67 7 84 44 11 24 25 39 36 39 10 0 25 7 33 15 17 16 54 21 54 6 0 -5
16 -13 37 -18 20 -4 38 -15 40 -23 2 -8 6 -31 9 -50 4 -19 12 -39 18 -43 7 -6
4 -7 -6 -3 -14 4 -18 0 -18 -20 0 -14 -13 -52 -30 -86 -16 -33 -30 -66 -30
-73 0 -6 -12 -23 -27 -36 -32 -27 -53 -61 -53 -84 0 -8 -9 -23 -20 -32 -12
-11 -20 -30 -20 -48 0 -17 -11 -46 -25 -65 -14 -19 -25 -39 -25 -45 0 -7 -13
-31 -30 -53 -16 -23 -30 -47 -30 -52 0 -13 -31 -62 -45 -72 -5 -4 -20 -8 -33
-8 -13 0 -32 -9 -44 -20 -12 -11 -29 -20 -39 -20 -11 0 -19 -12 -24 -37 l-7
-38 -18 23 c-25 30 -33 28 -25 -7 3 -17 2 -32 -4 -36 -6 -3 -11 0 -11 8 0 7
-11 24 -25 37 -32 30 -34 6 -3 -27 19 -20 20 -25 8 -33 -22 -14 -28 -12 -36
13 -8 26 -33 57 -47 57 -6 0 -7 -19 -4 -45 3 -32 1 -45 -7 -42 -6 2 -13 12
-14 23 -2 10 -9 24 -14 29 -8 7 -9 6 -4 -2 3 -6 -1 -13 -11 -15 -14 -3 -17
-12 -16 -48 l2 -45 -12 33 c-7 18 -16 30 -21 25 -4 -4 -5 4 -1 19 6 23 4 26
-14 21 -16 -4 -19 -11 -15 -29 5 -18 2 -24 -10 -24 -9 0 -16 -6 -16 -12 0 -7
-8 2 -16 20 -9 17 -23 32 -30 32 -14 0 -25 30 -28 75 -1 23 -15 33 -28 20 -3
-3 1 -24 9 -47 16 -48 13 -89 -5 -47 -5 14 -22 33 -36 42 -14 10 -26 24 -26
32 0 32 -20 23 -31 -16 -12 -38 -13 -39 -21 -18 -6 15 -5 25 1 27 20 7 11 24
-9 19 -11 -3 -20 -1 -20 4 0 5 -4 9 -10 9 -5 0 -10 -6 -10 -13 0 -9 -10 -12
-30 -9 -17 2 -30 10 -30 18 0 8 -4 14 -10 14 -5 0 -10 -8 -10 -18 0 -10 -4
-22 -9 -28 -5 -5 -11 -18 -14 -29 -3 -14 -5 -11 -6 10 -2 41 -12 75 -22 75 -5
0 -6 -13 -3 -29 4 -20 0 -37 -11 -53 -17 -23 -17 -23 -10 12 5 28 4 31 -5 17
-10 -16 -12 -16 -27 -1 -13 12 -14 20 -6 33 7 11 8 24 3 32 -6 8 -4 16 3 21 9
5 9 10 1 18 -9 9 -17 6 -32 -10 -11 -12 -28 -20 -38 -19 -11 2 -25 0 -31 -4
-12 -7 -19 17 -14 46 1 5 -3 5 -9 2 -7 -4 -8 -19 -5 -37 5 -21 4 -28 -4 -24
-6 4 -11 0 -12 -11 -1 -23 -21 45 -21 72 0 11 3 34 6 50 6 28 6 28 -8 -5 -8
-19 -18 -43 -22 -53 -11 -29 -29 -13 -26 24 l2 34 -24 -30 c-29 -36 -47 -26
-23 14 21 36 21 45 1 37 -15 -6 -16 0 -10 40 l6 47 -21 -27 c-26 -33 -36 -33
-41 3 -3 21 -1 28 9 24 7 -3 13 -1 13 4 0 15 -23 33 -43 33 -13 0 -17 5 -13
18 23 83 14 114 -28 87 -23 -16 -26 -16 -26 -1 0 9 4 16 8 16 11 0 43 56 35
64 -3 3 -13 0 -21 -7 -13 -10 -14 -8 -7 12 9 30 -16 25 -30 -7 -14 -32 -35
-36 -35 -7 0 14 4 25 10 25 5 0 7 7 4 15 -4 8 -10 15 -15 15 -5 0 -9 -7 -9
-15 0 -8 -4 -15 -10 -15 -5 0 -10 12 -10 28 0 21 -2 24 -10 12 -5 -8 -10 -25
-10 -37 0 -14 -6 -23 -16 -23 -12 0 -14 8 -8 45 5 35 3 45 -7 43 -19 -4 -23
27 -5 45 19 19 11 83 -14 112 -19 21 -29 64 -35 151 -3 31 -8 60 -12 67 -4 6
-8 24 -10 41 -2 16 -6 32 -10 35 -3 3 -3 -9 0 -26 4 -19 2 -33 -3 -33 -6 0
-10 -8 -11 -17 0 -15 -2 -15 -8 2 -5 12 -4 23 2 27 7 4 7 23 0 60 l-10 53 -2
-52 c0 -28 -5 -54 -9 -57 -10 -6 -11 5 -13 82 0 38 -5 52 -15 52 -8 0 -14 7
-14 15 0 8 5 15 10 15 6 0 10 5 10 10 0 6 -9 10 -20 10 -20 0 -22 3 -24 65 -1
45 -10 44 -23 -2 l-10 -38 -2 40 c-2 35 -3 37 -11 18 -5 -13 -13 -23 -18 -23
-4 0 -13 -12 -20 -27 -12 -28 -12 -28 -7 6 3 19 2 32 -1 28 -8 -8 -34 38 -34
59 0 7 -9 12 -20 11 -13 -1 -20 -8 -20 -22 0 -11 -4 -26 -9 -33 -15 -24 -44
55 -37 102 l6 41 -21 -42 c-12 -24 -25 -43 -30 -43 -5 0 -9 -9 -9 -19 0 -11
-4 -22 -8 -25 -12 -7 -9 197 3 207 6 5 2 6 -9 3 -16 -6 -18 -2 -12 24 4 20 2
29 -5 25 -6 -4 -8 -31 -4 -68 l6 -62 -17 30 c-10 17 -21 44 -26 60 -7 26 -7
25 -4 -10 4 -38 -10 -100 -14 -65 -2 8 -2 21 -1 28 1 6 -5 12 -13 12 -12 0
-14 10 -9 53 l6 52 -23 -28 c-13 -17 -23 -42 -23 -60 l1 -32 -10 28 c-7 20 -7
32 1 40 16 16 13 69 -5 96 -12 16 -15 34 -10 62 4 24 2 39 -4 39 -5 0 -10 -8
-10 -19 0 -10 -7 -24 -15 -31 -12 -10 -15 -9 -15 8 0 25 29 93 30 70 0 -19 20
-26 20 -7 0 16 -20 49 -29 49 -5 0 -12 -12 -16 -27 -7 -28 -7 -28 -18 -5 -8
17 -6 26 5 40 10 11 14 28 11 49 -6 37 -23 35 -23 -3 0 -13 -3 -24 -7 -24 -5
0 -9 39 -11 87 -5 127 -21 140 -23 18 l-1 -100 -13 53 c-7 29 -11 74 -8 100
l4 47 -15 -30 -14 -30 -1 28 c-1 32 -20 36 -28 6 -5 -19 -7 -18 -19 10 -11 26
-11 37 1 66 8 19 15 39 15 45 0 18 -17 11 -27 -12 -8 -18 -10 -5 -7 51 2 41 6
76 9 79 3 3 5 -2 5 -11 0 -9 4 -17 10 -17 5 0 7 13 4 30 -4 18 -1 36 6 45 16
20 5 32 -14 16 -12 -10 -15 -8 -18 11 -3 16 -6 9 -11 -22z m53 -362 c0 -18
-27 11 -33 35 -6 22 -6 22 14 -2 10 -13 19 -28 19 -33z m-73 -190 c-3 -8 -6
-5 -6 6 -1 11 2 17 5 13 3 -3 4 -12 1 -19z m180 -40 c-3 -7 -5 -2 -5 12 0 14
2 19 5 13 2 -7 2 -19 0 -25z m-40 -80 c-3 -8 -6 -5 -6 6 -1 11 2 17 5 13 3 -3
4 -12 1 -19z m110 -60 c-3 -8 -6 -5 -6 6 -1 11 2 17 5 13 3 -3 4 -12 1 -19z
m58 -138 c3 -5 1 -10 -4 -10 -6 0 -11 5 -11 10 0 6 2 10 4 10 3 0 8 -4 11 -10z
m41 -55 c-3 -63 -16 -69 -16 -7 0 29 4 52 9 52 6 0 9 -20 7 -45z m114 -72 c0
-20 -3 -24 -11 -16 -7 7 -9 19 -6 27 10 24 17 19 17 -11z m1754 11 c4 -10 1
-14 -6 -12 -15 5 -23 28 -10 28 5 0 13 -7 16 -16z m-2312 -26 c-7 -7 -12 -8
-12 -2 0 14 12 26 19 19 2 -3 -1 -11 -7 -17z m667 -50 c-1 -13 -4 -34 -8 -48
-10 -37 -23 -8 -15 35 7 39 25 48 23 13z m-662 -20 c-3 -8 -6 -5 -6 6 -1 11 2
17 5 13 3 -3 4 -12 1 -19z m720 -10 c-3 -7 -5 -2 -5 12 0 14 2 19 5 13 2 -7 2
-19 0 -25z m-738 -25 c0 -5 -4 -17 -9 -28 -8 -18 -9 -17 -9 8 -1 15 4 27 9 27
6 0 10 -3 9 -7z m798 -25 c-3 -8 -6 -5 -6 6 -1 11 2 17 5 13 3 -3 4 -12 1 -19z
m1823 -108 c0 -32 -4 -40 -19 -40 -25 0 -43 23 -35 45 7 17 8 17 20 0 12 -16
14 -15 20 9 9 37 14 32 14 -14z m430 36 c0 -3 -4 -8 -10 -11 -5 -3 -10 -1 -10
4 0 6 5 11 10 11 6 0 10 -2 10 -4z m-3049 -49 c-8 -8 -11 -3 -11 19 1 25 2 27
11 11 8 -14 8 -22 0 -30z m49 23 c0 -11 -4 -20 -10 -20 -5 0 -10 9 -10 20 0
11 5 20 10 20 6 0 10 -9 10 -20z m2486 7 c7 0 11 -10 10 -22 -1 -21 -2 -21
-23 -6 -29 21 -40 46 -16 36 10 -4 23 -8 29 -8z m-1805 -38 c-5 -13 -10 -19
-10 -12 -1 15 10 45 15 40 3 -2 0 -15 -5 -28z m-729 -71 c-9 -9 -12 -7 -12 12
0 19 3 21 12 12 9 -9 9 -15 0 -24z m915 -20 c-3 -8 -6 -5 -6 6 -1 11 2 17 5
13 3 -3 4 -12 1 -19z m1871 -9 c-6 -4 -17 -1 -25 6 -20 20 -16 24 11 12 15 -7
20 -14 14 -18z m-1931 -1 c-3 -8 -6 -5 -6 6 -1 11 2 17 5 13 3 -3 4 -12 1 -19z
m-1894 5 c-7 -2 -19 -2 -25 0 -7 3 -2 5 12 5 14 0 19 -2 13 -5z m1087 -28 c0
-8 8 -19 19 -24 13 -7 17 -18 13 -36 -7 -37 15 -74 39 -68 10 3 19 0 19 -6 0
-6 7 -11 15 -11 11 0 14 -10 11 -45 -3 -25 -8 -50 -12 -56 -13 -21 -14 -73 -2
-80 9 -6 9 -11 -1 -23 -8 -9 -9 -16 -4 -16 6 0 14 -15 20 -32 7 -24 15 -33 30
-32 18 0 20 -3 12 -17 -6 -12 -5 -20 1 -24 6 -4 9 -27 6 -53 -2 -26 -2 -40 1
-31 2 10 12 20 21 23 9 3 23 9 30 12 6 3 12 1 12 -5 0 -6 -7 -11 -15 -11 -8 0
-15 -4 -15 -10 0 -5 5 -10 12 -10 6 0 3 -6 -7 -14 -17 -12 -18 -15 -3 -30 9
-9 24 -16 33 -16 30 0 75 -39 68 -58 -6 -14 -4 -15 9 -5 12 11 19 9 37 -11 14
-15 19 -26 12 -31 -6 -3 -11 -10 -11 -16 0 -14 27 -11 34 4 3 8 9 7 20 -7 8
-10 13 -22 11 -27 -3 -4 1 -10 7 -12 10 -4 9 -8 -2 -16 -13 -9 -12 -11 6 -11
33 0 35 -10 9 -45 -34 -43 -32 -49 15 -42 37 5 40 3 40 -19 0 -13 5 -24 11
-24 6 0 8 -9 4 -21 -6 -18 -4 -20 15 -14 18 6 21 3 19 -17 -2 -12 5 -38 14
-55 18 -34 31 -45 21 -18 -4 10 0 15 12 15 23 0 107 -40 116 -56 4 -6 19 -15
33 -18 14 -4 25 -11 25 -17 0 -6 -7 -9 -15 -5 -19 7 -19 -3 -1 -18 7 -6 16
-23 20 -38 5 -21 0 -31 -22 -50 -26 -21 -28 -25 -16 -48 11 -20 14 -21 14 -7
0 12 12 23 30 30 17 6 30 15 30 19 0 20 18 4 30 -27 8 -19 17 -35 22 -35 4 0
8 -5 8 -11 0 -5 -5 -7 -10 -4 -6 4 -18 4 -28 0 -14 -5 -14 -7 -2 -15 8 -6 26
-10 39 -10 25 0 64 -37 55 -51 -9 -15 8 -10 27 7 13 12 22 13 38 5 11 -6 28
-11 38 -11 21 -1 63 -33 63 -48 0 -6 14 -20 30 -32 26 -18 30 -19 30 -5 0 9 5
13 11 10 6 -4 8 -13 5 -21 -3 -9 1 -14 13 -14 10 0 21 -3 25 -7 4 -4 22 -6 40
-5 21 2 40 -3 51 -14 13 -14 21 -15 35 -6 11 6 21 7 27 1 13 -13 103 -20 125
-8 10 5 18 8 18 5 0 -2 3 -11 6 -19 3 -8 -2 -17 -12 -21 -12 -5 -15 -2 -10 10
4 10 1 14 -6 12 -20 -7 -19 -22 1 -35 16 -10 31 -9 77 3 44 11 60 12 68 3 8
-9 8 -10 -1 -5 -7 4 -22 1 -34 -7 -20 -15 -20 -15 10 -22 17 -4 29 -11 26 -16
-4 -5 1 -6 9 -3 9 3 16 14 16 24 0 25 29 48 39 31 7 -10 13 -11 31 -1 13 7 61
12 109 12 47 1 92 5 99 11 8 7 20 7 36 -1 13 -6 41 -8 62 -5 21 2 47 5 57 6
10 1 15 7 13 13 -3 8 8 15 27 20 18 3 36 9 41 12 21 12 56 7 56 -8 0 -29 -39
-247 -55 -310 -20 -76 -61 -206 -75 -235 -5 -11 -15 -40 -23 -65 -14 -41 -83
-138 -99 -140 -5 0 -17 -8 -27 -17 -32 -30 -76 -58 -85 -55 -4 1 -13 -2 -20
-7 -15 -13 -129 -6 -134 8 -5 14 -42 15 -42 1 0 -22 -91 -4 -155 32 -29 16
-262 29 -308 17 -31 -8 -43 -7 -64 6 -21 14 -30 15 -51 6 -17 -8 -28 -9 -36
-1 -5 5 -23 10 -38 10 -15 0 -28 3 -28 8 0 8 -9 11 -160 62 -52 17 -114 40
-138 51 -23 10 -51 19 -61 19 -11 0 -21 3 -23 8 -1 4 -28 18 -58 32 -30 14
-86 46 -125 71 -38 25 -108 68 -155 94 -121 69 -204 138 -373 309 -210 213
-253 264 -333 386 -27 41 -52 77 -56 78 -21 9 -2 38 91 137 70 75 211 269 211
290 0 3 15 38 34 77 89 190 103 253 110 505 3 84 7 157 11 163 10 16 55 12 55
-5z m850 -6 c0 -5 -4 -9 -10 -9 -5 0 -10 7 -10 16 0 8 5 12 10 9 6 -3 10 -10
10 -16z m-63 -21 c-3 -8 -6 -5 -6 6 -1 11 2 17 5 13 3 -3 4 -12 1 -19z m85
-10 c-9 -9 -12 -7 -12 12 0 19 3 21 12 12 9 -9 9 -15 0 -24z m-45 -80 c-3 -8
-6 -5 -6 6 -1 11 2 17 5 13 3 -3 4 -12 1 -19z m30 -55 c-3 -10 -5 -2 -5 17 0
19 2 27 5 18 2 -10 2 -26 0 -35z m4944 -83 c11 0 22 -7 25 -15 4 -8 16 -15 27
-15 16 0 18 3 9 12 -7 7 -12 19 -12 27 0 28 26 -9 58 -84 l30 -69 -24 -29
c-13 -16 -24 -33 -24 -38 0 -5 -9 -9 -20 -9 -11 0 -20 7 -20 15 0 8 -8 15 -18
15 -19 0 -72 51 -91 87 -18 34 -14 104 7 119 14 10 18 10 25 -2 4 -8 17 -14
28 -14z m-4931 -20 c-15 -28 -23 -20 -14 15 4 17 10 23 16 17 6 -6 6 -18 -2
-32z m4317 -39 c13 -13 22 -25 19 -28 -7 -7 -66 16 -87 34 -8 7 -22 13 -30 13
-9 1 -6 8 10 21 26 22 25 22 88 -40z m-5047 -31 c0 -5 -2 -10 -4 -10 -3 0 -8
5 -11 10 -3 6 -1 10 4 10 6 0 11 -4 11 -10z m5073 -25 c-3 -9 -8 -14 -10 -11
-3 3 -2 9 2 15 9 16 15 13 8 -4z m-5076 -27 c-3 -7 -5 -2 -5 12 0 14 2 19 5
13 2 -7 2 -19 0 -25z m5126 -34 c-3 -8 -13 -14 -23 -14 -21 0 -31 40 -17 65 8
15 11 14 27 -10 10 -15 16 -34 13 -41z m-4890 -234 c3 -11 2 -20 -3 -20 -4 0
-10 9 -13 20 -3 11 -2 20 3 20 4 0 10 -9 13 -20z m-1635 -242 c-3 -7 -18 -14
-34 -16 -28 -3 -28 -3 -9 12 24 19 48 21 43 4z m3384 -66 c-7 -20 -21 -1 -28
38 l-6 35 20 -30 c10 -16 17 -36 14 -43z m-3262 -32 c0 -35 -41 -63 -62 -42
-8 8 -3 19 22 42 17 16 34 30 36 30 2 0 4 -14 4 -30z m-275 -26 c15 -6 15 -8
-1 -25 -19 -21 -44 -15 -44 12 0 19 16 24 45 13z m385 -4 c0 -13 -28 -25 -38
-16 -3 4 0 11 8 16 20 13 30 12 30 0z m-323 -252 c-3 -8 -6 -5 -6 6 -1 11 2
17 5 13 3 -3 4 -12 1 -19z m-237 -34 c0 -2 -7 -4 -15 -4 -8 0 -15 4 -15 10 0
5 7 7 15 4 8 -4 15 -8 15 -10z m150 -35 c0 -5 -7 -9 -15 -9 -15 0 -20 12 -9
23 8 8 24 -1 24 -14z m58 -42 c2 -19 -1 -27 -13 -27 -19 0 -30 24 -21 46 9 23
31 11 34 -19z m-108 -132 c0 -19 -21 -32 -65 -38 -22 -4 -34 -3 -27 2 8 5 12
22 10 42 -3 29 1 36 27 50 30 16 30 16 42 -13 7 -17 13 -36 13 -43z m70 -31
c0 -8 -6 -11 -16 -7 -9 3 -14 13 -11 24 3 11 1 19 -3 19 -4 0 -6 9 -3 21 5 19
7 18 19 -11 8 -18 14 -38 14 -46z m-346 5 c-3 -5 -10 -7 -15 -3 -5 3 -7 10 -3
15 3 5 10 7 15 3 5 -3 7 -10 3 -15z m3343 -5 c-3 -3 -12 -4 -19 -1 -8 3 -5 6
6 6 11 1 17 -2 13 -5z m-3247 -93 c0 -10 -30 -24 -37 -17 -3 3 -2 9 2 15 8 13
35 15 35 2z m-190 -151 c0 -5 -5 -10 -11 -10 -5 0 -7 5 -4 10 3 6 8 10 11 10
2 0 4 -4 4 -10z m7315 -1481 c9 -26 4 -31 -47 -40 -24 -4 -86 -19 -138 -32
l-95 -24 -3 39 c-5 68 8 73 185 76 85 2 92 0 98 -19z m-349 -1177 c6 -28 4
-32 -15 -32 -22 0 -26 15 -15 58 8 29 21 17 30 -26z"/>
<path d="M1981 6984 c0 -11 3 -14 6 -6 3 7 2 16 -1 19 -3 4 -6 -2 -5 -13z"/>
<path d="M2360 6300 c0 -5 5 -10 10 -10 6 0 10 5 10 10 0 6 -4 10 -10 10 -5 0
-10 -4 -10 -10z"/>
<path d="M2399 5973 c-7 -50 17 -89 49 -78 l21 6 -20 40 c-19 34 -47 53 -50
32z"/>
<path d="M2705 5951 c-3 -5 -1 -12 5 -16 5 -3 10 1 10 9 0 18 -6 21 -15 7z"/>
<path d="M3238 5663 c7 -3 16 -2 19 1 4 3 -2 6 -13 5 -11 0 -14 -3 -6 -6z"/>
<path d="M1585 8430 c-8 -14 20 -60 37 -60 29 0 28 15 -2 42 -17 15 -32 23
-35 18z"/>
<path d="M2036 8411 c-4 -7 -5 -15 -2 -18 9 -9 19 4 14 18 -4 11 -6 11 -12 0z"/>
<path d="M1750 8237 c0 -19 16 -31 24 -18 3 5 -1 14 -9 21 -12 10 -15 10 -15
-3z"/>
<path d="M6316 8206 c-7 -28 -2 -54 20 -124 18 -55 70 -159 85 -167 11 -7 109
81 109 97 0 4 -7 8 -15 8 -9 0 -18 7 -21 15 -4 8 -11 15 -16 15 -6 0 -19 11
-30 25 -10 13 -37 29 -59 35 -26 7 -39 16 -39 28 0 9 -6 34 -14 56 -13 37 -13
38 -20 12z"/>
<path d="M1745 8179 c-4 -6 -5 -13 -2 -16 7 -7 27 6 27 18 0 12 -17 12 -25 -2z"/>
<path d="M1703 8143 c9 -2 23 -2 30 0 6 3 -1 5 -18 5 -16 0 -22 -2 -12 -5z"/>
<path d="M3590 8095 c0 -53 43 -94 145 -138 47 -21 90 -35 95 -32 6 3 10 2 10
-3 0 -5 11 -7 25 -4 32 6 24 18 -18 26 -18 3 -49 17 -67 31 -19 14 -39 25 -45
25 -28 0 -105 63 -117 96 -16 44 -28 44 -28 -1z"/>
<path d="M3857 8079 c-21 -5 -48 -15 -59 -23 -18 -13 -17 -14 24 -20 24 -3 62
-8 85 -12 24 -3 57 -1 78 6 33 11 41 9 87 -14 60 -31 62 -31 48 -6 -26 49
-181 90 -263 69z"/>
<path d="M7357 7893 c-4 -3 -7 -13 -7 -22 1 -13 3 -13 11 2 11 19 8 33 -4 20z"/>
<path d="M3906 7837 c-27 -17 -53 -42 -59 -58 -3 -8 -6 -3 -7 11 -1 23 -2 24
-14 7 -14 -18 -36 -19 -47 -4 -3 5 -13 1 -22 -7 -14 -15 -16 -13 -19 16 l-4
33 -17 -37 c-21 -46 -34 -54 -42 -28 -3 11 -11 20 -16 20 -11 0 -12 -23 0 -35
4 -6 0 -18 -11 -28 -18 -17 -19 -17 -32 14 l-13 31 -17 -23 c-9 -13 -16 -31
-16 -41 0 -30 -17 -20 -24 15 l-7 32 -14 -30 -13 -30 -2 30 -2 30 -13 -30 c-8
-16 -14 -43 -15 -59 0 -24 2 -27 15 -16 13 10 15 9 15 -12 0 -13 4 -28 9 -33
5 -6 12 -19 15 -30 3 -11 3 7 1 40 -4 47 -3 55 5 36 22 -52 31 -55 62 -19 28
33 28 33 28 8 0 -14 4 -30 8 -36 10 -15 52 -25 49 -11 -1 6 6 13 16 15 9 2 17
-1 17 -7 0 -6 9 -25 20 -43 l19 -32 12 32 c12 35 24 41 33 17 4 -10 16 -15 33
-13 16 2 28 -2 29 -9 3 -27 5 -27 19 -3 7 14 11 35 8 48 -4 15 -1 22 10 22 8
0 20 7 27 15 21 25 40 18 40 -15 0 -25 4 -29 22 -27 12 1 35 14 49 29 15 15
30 24 33 21 3 -4 6 16 5 43 -1 39 -3 44 -9 24 -7 -22 -8 -21 -9 13 -1 36 -15
50 -24 25 -3 -10 -7 -10 -20 0 -14 12 -17 10 -23 -12 -11 -45 -23 -18 -17 39
3 31 2 55 -3 55 -15 0 -31 -54 -23 -75 11 -29 11 -67 -1 -60 -5 3 -10 17 -10
30 0 29 -17 42 -23 18 -3 -10 -3 1 -1 24 1 24 6 52 9 63 7 23 7 23 -19 7z
m-299 -164 c-3 -10 -5 -4 -5 12 0 17 2 24 5 18 2 -7 2 -21 0 -30z m443 23 c0
-8 -4 -18 -10 -21 -5 -3 -10 3 -10 14 0 12 5 21 10 21 6 0 10 -6 10 -14z
m-363 -48 c-3 -8 -6 -5 -6 6 -1 11 2 17 5 13 3 -3 4 -12 1 -19z"/>
<path d="M4015 7790 c-3 -5 -1 -18 4 -27 9 -16 10 -14 11 10 0 28 -5 34 -15
17z"/>
<path d="M2392 7741 c1 -27 6 -48 10 -45 10 6 7 83 -3 90 -5 3 -8 -17 -7 -45z"/>
<path d="M3280 7770 c0 -5 5 -10 10 -10 6 0 10 5 10 10 0 6 -4 10 -10 10 -5 0
-10 -4 -10 -10z"/>
<path d="M3245 7753 c-11 -3 -46 -14 -79 -24 -32 -10 -62 -16 -67 -13 -5 3 -9
0 -9 -5 0 -6 7 -11 15 -11 10 0 8 -6 -8 -22 -12 -13 -31 -34 -42 -48 -11 -14
-31 -34 -45 -44 -25 -18 -25 -18 45 -12 38 4 74 10 80 15 11 8 85 26 150 37
24 4 49 16 63 32 22 25 26 23 23 -10 -3 -25 11 -22 37 5 27 29 28 40 2 32 -18
-6 -20 -3 -14 21 6 24 5 26 -14 22 -13 -4 -23 0 -26 9 -5 11 -17 14 -41 11
-19 -2 -35 0 -35 4 0 9 -4 9 -35 1z"/>
<path d="M4100 7720 c0 -13 5 -20 13 -17 6 2 12 10 12 17 0 7 -6 15 -12 18 -8
2 -13 -5 -13 -18z"/>
<path d="M2610 7710 c0 -5 5 -10 10 -10 6 0 10 5 10 10 0 6 -4 10 -10 10 -5 0
-10 -4 -10 -10z"/>
<path d="M3445 7680 c-3 -5 -1 -10 4 -10 6 0 11 5 11 10 0 6 -2 10 -4 10 -3 0
-8 -4 -11 -10z"/>
<path d="M2611 7664 c0 -11 3 -14 6 -6 3 7 2 16 -1 19 -3 4 -6 -2 -5 -13z"/>
<path d="M2553 7655 c-3 -9 -3 -18 -1 -21 3 -3 8 4 11 16 6 23 -1 27 -10 5z"/>
<path d="M3790 7535 c0 -8 5 -15 10 -15 6 0 10 7 10 15 0 8 -4 15 -10 15 -5 0
-10 -7 -10 -15z"/>
<path d="M4971 7524 c0 -11 3 -14 6 -6 3 7 2 16 -1 19 -3 4 -6 -2 -5 -13z"/>
<path d="M3085 7510 c-3 -5 1 -10 9 -10 9 0 16 5 16 10 0 6 -4 10 -9 10 -6 0
-13 -4 -16 -10z"/>
<path d="M3768 7470 c32 -20 72 -27 72 -12 0 11 -51 32 -79 32 -25 0 -25 -1 7
-20z"/>
<path d="M3720 7450 c20 -13 40 -13 40 0 0 6 -12 10 -27 10 -22 0 -25 -2 -13
-10z"/>
<path d="M2823 7223 c1 -18 5 -33 10 -33 9 0 8 19 -3 45 -7 16 -8 14 -7 -12z"/>
<path d="M2827 7150 c-3 -14 -2 -29 3 -34 15 -15 20 -3 11 29 l-7 30 -7 -25z"/>
<path d="M3899 6943 c0 -35 -1 -36 -11 -15 -12 24 -28 30 -28 10 0 -30 13 -58
27 -58 25 0 11 -45 -14 -48 -13 -2 -23 -8 -23 -13 0 -10 32 -7 82 7 9 3 19 0
23 -6 3 -5 15 -10 26 -10 11 0 18 4 15 9 -3 5 1 12 10 15 9 3 14 12 11 19 -8
21 12 60 28 53 22 -8 18 11 -6 35 -15 15 -24 18 -34 9 -8 -7 -15 -7 -19 -1 -7
11 -46 3 -46 -10 0 -5 -4 -9 -10 -9 -5 0 -10 11 -10 25 0 41 -20 29 -21 -12z"/>
<path d="M4085 6928 c-4 -10 -4 -26 0 -35 8 -17 8 -17 12 0 3 9 3 25 0 35 -4
16 -4 16 -12 0z"/>
<path d="M4165 6896 c20 -30 25 -32 25 -11 0 8 -9 19 -21 25 -20 11 -20 11 -4
-14z"/>
<path d="M3955 6790 c-8 -13 4 -32 16 -25 12 8 12 35 0 35 -6 0 -13 -4 -16
-10z"/>
<path d="M3626 6411 c-4 -7 -5 -15 -2 -18 9 -9 19 4 14 18 -4 11 -6 11 -12 0z"/>
<path d="M3795 6380 c3 -5 8 -10 11 -10 2 0 4 5 4 10 0 6 -5 10 -11 10 -5 0
-7 -4 -4 -10z"/>
<path d="M3821 6334 c0 -11 3 -14 6 -6 3 7 2 16 -1 19 -3 4 -6 -2 -5 -13z"/>
<path d="M3821 6284 c0 -11 3 -14 6 -6 3 7 2 16 -1 19 -3 4 -6 -2 -5 -13z"/>
<path d="M8720 5950 c0 -13 5 -20 13 -17 6 2 12 10 12 17 0 7 -6 15 -12 18 -8
2 -13 -5 -13 -18z"/>
</g>
</svg>
